<svg width="20" height="20" viewBox="0 0 20 20" fill="none" xmlns="http://www.w3.org/2000/svg">
<path d="M18.3333 9.08333V3.41667C18.3333 2.16667 17.8 1.66667 16.475 1.66667H13.1083C11.7833 1.66667 11.25 2.16667 11.25 3.41667V9.08333C11.25 10.3333 11.7833 10.8333 13.1083 10.8333H16.475C17.8 10.8333 18.3333 10.3333 18.3333 9.08333Z" stroke="#9C9CAB" stroke-width="1.5" stroke-linecap="round" stroke-linejoin="round"/>
<path d="M18.3333 16.5833V15.0833C18.3333 13.8333 17.8 13.3333 16.475 13.3333H13.1083C11.7833 13.3333 11.25 13.8333 11.25 15.0833V16.5833C11.25 17.8333 11.7833 18.3333 13.1083 18.3333H16.475C17.8 18.3333 18.3333 17.8333 18.3333 16.5833Z" stroke="#9C9CAB" stroke-width="1.5" stroke-linecap="round" stroke-linejoin="round"/>
<path d="M8.75002 10.9167V16.5833C8.75002 17.8333 8.21669 18.3333 6.89169 18.3333H3.52502C2.20002 18.3333 1.66669 17.8333 1.66669 16.5833V10.9167C1.66669 9.66667 2.20002 9.16667 3.52502 9.16667H6.89169C8.21669 9.16667 8.75002 9.66667 8.75002 10.9167Z" stroke="#9C9CAB" stroke-width="1.5" stroke-linecap="round" stroke-linejoin="round"/>
<path d="M8.75002 3.41667V4.91667C8.75002 6.16667 8.21669 6.66667 6.89169 6.66667H3.52502C2.20002 6.66667 1.66669 6.16667 1.66669 4.91667V3.41667C1.66669 2.16667 2.20002 1.66667 3.52502 1.66667H6.89169C8.21669 1.66667 8.75002 2.16667 8.75002 3.41667Z" stroke="#9C9CAB" stroke-width="1.5" stroke-linecap="round" stroke-linejoin="round"/>
</svg>
