<?xml version="1.0" encoding="iso-8859-1"?>
<!-- Uploaded to: SVG Repo, www.svgrepo.com, Generator: SVG Repo Mixer Tools -->
<svg height="800px" width="800px" version="1.1" id="Layer_1" xmlns="http://www.w3.org/2000/svg" xmlns:xlink="http://www.w3.org/1999/xlink" 
	 viewBox="0 0 511.882 511.882" xml:space="preserve">
<path style="fill:#8CC153;" d="M354.668,340.811l-174.063-185.66c-15.84-16.887-22.635-33.086-18.191-43.318
	c4.429-10.185,20.769-16.246,43.748-16.246c0.109,0,0.227,0,0.336,0l149.31,0.391l0,0c0,0,0.016,0,0.031,0
	c5.89,0,10.653-4.772,10.653-10.661c0-5.882-4.764-10.654-10.638-10.662v-0.008l-149.302-0.391c-0.133,0-0.266,0-0.406,0
	c-32.665,0-55.136,10.318-63.29,29.071c-8.186,18.832-0.305,42.42,22.19,66.415l174.046,185.645
	c15.84,16.902,22.651,33.133,18.183,43.428c-4.451,10.279-20.947,16.434-44.099,16.434H142.544c-5.889,0-10.662,4.765-10.662,10.654
	c0,5.889,4.772,10.653,10.662,10.653h170.633c32.884,0,55.487-10.388,63.673-29.274C385.035,388.41,377.146,364.791,354.668,340.811
	z"/>
<path style="fill:#A0D468;" d="M249.183,0c-5.889,0-10.662,4.771-10.662,10.661v490.567c0,5.874,4.772,10.654,10.662,10.654
	s10.67-4.78,10.67-10.654V10.661C259.853,4.771,255.072,0,249.183,0z"/>
</svg>