<?xml version="1.0" encoding="iso-8859-1"?>
<!-- Uploaded to: SVG Repo, www.svgrepo.com, Generator: SVG Repo Mixer Tools -->
<svg height="800px" width="800px" version="1.1" id="Layer_1" xmlns="http://www.w3.org/2000/svg" xmlns:xlink="http://www.w3.org/1999/xlink" 
	 viewBox="0 0 511.879 511.879" xml:space="preserve">
<path style="fill:#4A89DC;" d="M431.899,461.875c-1.702,0-3.296,0.406-4.733,1.109l0,0c-1.156,0.562-117.113,56.862-197.673,6.826
	c-53.05-32.945-79.95-104.913-79.95-213.888c0-108.913,26.869-180.857,79.872-213.818c18.215-11.334,39.742-18.098,63.986-20.121
	c19.776-1.655,41.412-0.172,64.281,4.397c39.477,7.882,69.203,22.401,69.5,22.55v-0.008c1.422,0.703,3.016,1.109,4.718,1.109
	c5.89,0,10.653-4.772,10.653-10.662c0-4.194-2.421-7.811-5.936-9.552V29.81c-1.281-0.641-32.102-15.747-74.186-24.229
	c-24.885-5.022-48.583-6.662-70.422-4.89c-27.76,2.266-52.582,10.092-73.765,23.245c-59.736,37.101-90.026,115.153-90.026,231.986
	c0,116.848,30.29,194.908,90.026,232.009c21.183,13.153,46.005,20.979,73.765,23.245c5.701,0.469,11.528,0.703,17.48,0.703
	c16.809,0,34.555-1.859,52.941-5.577c42.084-8.467,72.904-23.573,74.186-24.214l0,0c3.515-1.749,5.936-5.357,5.936-9.56
	C442.552,466.639,437.789,461.875,431.899,461.875z"/>
<g>
	<path style="fill:#5D9CEC;" d="M346.59,298.599H79.98c-5.889,0-10.654,4.766-10.654,10.654s4.765,10.67,10.654,10.67h266.611
		c5.89,0,10.653-4.781,10.653-10.67S352.48,298.599,346.59,298.599z"/>
	<path style="fill:#5D9CEC;" d="M357.244,234.615H90.649c-5.889,0-10.669,4.771-10.669,10.661s4.78,10.662,10.669,10.662h266.595
		c5.891,0,10.67-4.772,10.67-10.662S363.134,234.615,357.244,234.615z"/>
</g>
</svg>