<svg width="20" height="20" viewBox="0 0 20 20" fill="none" xmlns="http://www.w3.org/2000/svg">
<path d="M7.22656 11.9415C7.22656 13.0165 8.05156 13.8832 9.07656 13.8832H11.1682C12.0599 13.8832 12.7849 13.1248 12.7849 12.1915C12.7849 11.1748 12.3432 10.8165 11.6849 10.5832L8.32656 9.41652C7.66823 9.18318 7.22656 8.82485 7.22656 7.80818C7.22656 6.87485 7.95156 6.11652 8.84323 6.11652H10.9349C11.9599 6.11652 12.7849 6.98318 12.7849 8.05818" stroke="#9C9CAB" stroke-width="1.5" stroke-linecap="round" stroke-linejoin="round"/>
<path d="M10 5V15" stroke="#9C9CAB" stroke-width="1.5" stroke-linecap="round" stroke-linejoin="round"/>
<path d="M12.5 18.3334H7.50002C3.33335 18.3334 1.66669 16.6667 1.66669 12.5V7.50002C1.66669 3.33335 3.33335 1.66669 7.50002 1.66669H12.5C16.6667 1.66669 18.3334 3.33335 18.3334 7.50002V12.5C18.3334 16.6667 16.6667 18.3334 12.5 18.3334Z" stroke="#9C9CAB" stroke-width="1.5" stroke-linecap="round" stroke-linejoin="round"/>
</svg>
