<svg width="160" height="32" viewBox="0 0 160 32" fill="none" xmlns="http://www.w3.org/2000/svg">
<path d="M16.0002 4C20.3471 4 24.2567 5.00879 27.0611 6.61273C29.8834 8.22689 31.4788 10.3706 31.4788 12.6131C31.4788 14.8555 29.8834 16.9993 27.0611 18.6135C24.2567 20.2174 20.3471 21.2262 16.0002 21.2262C11.6534 21.2262 7.74378 20.2174 4.93938 18.6135C2.11706 16.9993 0.521729 14.8555 0.521729 12.6131C0.521729 10.3706 2.11706 8.22689 4.93938 6.61273C7.74378 5.00879 11.6534 4 16.0002 4Z" fill="url(#paint0_linear_16_730)" stroke="url(#paint1_linear_16_730)"/>
<path fill-rule="evenodd" clip-rule="evenodd" d="M0.00313573 15.6636H0V18.6541C1.73916e-06 19.8816 0.41385 21.0968 1.21793 22.2308C2.022 23.3646 3.20054 24.3948 4.68629 25.2627C6.17201 26.1305 7.93583 26.8189 9.87705 27.2887C11.8182 27.7584 13.8988 28 16 28C18.1012 28 20.1817 27.7584 22.123 27.2887C24.064 26.8189 25.8279 26.1305 27.3137 25.2627C28.7994 24.3948 29.9779 23.3646 30.7821 22.2308C31.5861 21.0968 32 19.8816 32 18.6541V15.6636H31.9969C31.8264 20.7387 24.7296 24.42 16 24.42C7.27034 24.42 0.173594 20.7387 0.00313573 15.6636Z" fill="#DAF727"/>
<g opacity="0.8" filter="url(#filter0_f_16_730)">
<path d="M14.8864 17.145L15.3088 18.0553C15.3555 18.156 15.4795 18.2209 15.5857 18.2006L16.3553 18.0535C16.4062 18.0438 16.4462 18.0153 16.4666 17.9742C16.4867 17.9331 16.4855 17.8829 16.4631 17.8346L16.0406 16.9243L16.4255 16.8507L16.8478 17.761C16.8946 17.8615 17.0186 17.9266 17.1247 17.9064L17.8942 17.7592C17.9452 17.7495 17.9854 17.721 18.0055 17.6799C18.0257 17.6388 18.0245 17.5886 18.0021 17.5403L17.5798 16.63L17.6443 16.6176C19.1772 16.3244 19.924 15.3625 19.3202 14.061C18.8125 12.9671 17.7603 12.5173 16.8135 12.6056L16.7838 12.5415C17.4483 12.2225 17.7497 11.5844 17.3387 10.6988C16.8212 9.58296 15.6219 9.07484 14.2714 9.33309L14.2006 9.34662L13.7782 8.43622C13.7558 8.38791 13.7141 8.34547 13.6621 8.31823C13.6102 8.29098 13.5524 8.28116 13.5014 8.29091L12.7319 8.43806C12.6808 8.44783 12.6408 8.47636 12.6206 8.51741C12.6003 8.55845 12.6015 8.60864 12.624 8.65693L13.0463 9.56735L12.6054 9.65167L12.183 8.74124C12.1606 8.69296 12.1189 8.65052 12.0669 8.62328C12.015 8.59602 11.9572 8.58621 11.9062 8.59595L11.1928 8.73236C11.1418 8.74212 11.1018 8.77067 11.0815 8.81171C11.0613 8.85275 11.0625 8.90294 11.0849 8.95124L11.5073 9.86164L9.97353 10.1637C9.92251 10.1734 9.88247 10.202 9.86224 10.243C9.842 10.2841 9.84323 10.3343 9.86563 10.3825L10.1998 11.1029C10.2461 11.2026 10.3689 11.2688 10.4751 11.2484L11.0544 11.1337C11.2073 11.1055 11.38 11.1356 11.5349 11.2174C11.6898 11.2992 11.8142 11.4261 11.8812 11.5703L13.7414 15.5798C13.8086 15.7247 13.8123 15.8753 13.7515 15.9984C13.6908 16.1215 13.5707 16.2071 13.4177 16.2363L12.8458 16.3546C12.7948 16.3643 12.7547 16.3928 12.7345 16.4339C12.7143 16.4748 12.7155 16.525 12.7379 16.5733L13.0758 17.3016C13.1224 17.4021 13.2465 17.4673 13.3527 17.447L14.8864 17.145ZM13.1079 10.7347L14.4307 10.4817C15.1279 10.3484 15.7055 10.6328 15.9806 11.2257C16.2749 11.8601 15.9984 12.3023 14.9964 12.4939L14.0115 12.6823L13.1079 10.7347ZM14.4768 13.6852L15.8927 13.4144C16.7676 13.2471 17.44 13.5784 17.7589 14.266C18.081 14.9601 17.7671 15.4142 16.5883 15.6396L15.4817 15.8512L14.4771 13.6859L14.4768 13.6852Z" fill="#5235E8" fill-opacity="0.64"/>
</g>
<path d="M11.3822 10.2528L11.3828 10.2526L11.9615 10.138C12.0915 10.1142 12.2384 10.1399 12.3702 10.2094C12.5021 10.2791 12.6082 10.3872 12.6652 10.5101L14.5254 14.5195C14.5826 14.6429 14.5858 14.7712 14.534 14.8761C14.4823 14.981 14.38 15.0539 14.2496 15.0788L14.2484 15.0791L13.6778 15.1969C13.6775 15.197 13.6773 15.197 13.6771 15.1971C13.6037 15.2113 13.5461 15.2525 13.517 15.3115C13.4878 15.3708 13.4895 15.4433 13.5219 15.5131L13.8598 16.2414C13.9272 16.3867 14.1063 16.4806 14.2597 16.4513L14.2602 16.4511L15.7082 16.166L16.0929 16.9952C16.1602 17.1404 16.3394 17.2344 16.4927 17.2049L17.2623 17.0578C17.3359 17.0438 17.3938 17.0025 17.423 16.9431C17.4522 16.8839 17.4505 16.8114 17.4182 16.7416L17.0333 15.9123L17.247 15.8714L17.6319 16.7007C17.6992 16.8461 17.8783 16.9401 18.0317 16.9107L18.8013 16.7635C18.875 16.7494 18.9328 16.7083 18.962 16.6489C18.9912 16.5897 18.9895 16.5172 18.9571 16.4474L18.5723 15.6178C19.3422 15.4669 19.9234 15.1476 20.2356 14.6939C20.5523 14.2342 20.5881 13.6425 20.2751 12.968C20.0125 12.4018 19.6053 11.9964 19.1359 11.745C18.7443 11.5354 18.3147 11.4358 17.8975 11.4356C18.1477 11.2754 18.3323 11.0604 18.4241 10.7947C18.5375 10.4658 18.5069 10.0652 18.2938 9.60579C18.0248 9.02596 17.575 8.59832 17.0129 8.35147C16.4573 8.10741 15.8023 8.04457 15.1181 8.17276L14.7332 7.34324C14.7009 7.27349 14.6406 7.21219 14.5656 7.17284C14.4906 7.13347 14.407 7.11928 14.3333 7.13336L13.5638 7.28052C13.4901 7.29461 13.4323 7.33584 13.4031 7.39513C13.3738 7.45442 13.3756 7.52691 13.4079 7.59668L13.7928 8.42615L13.5229 8.47778L13.138 7.64828C13.1057 7.57853 13.0454 7.51724 12.9704 7.47787C12.8953 7.43852 12.8118 7.42432 12.7381 7.43841L12.0248 7.57482C11.9511 7.58892 11.8933 7.63014 11.864 7.68943C11.8348 7.74871 11.8366 7.82123 11.8689 7.89097L12.254 8.7209L10.8055 9.00614L10.843 9.08706L10.805 9.00622L10.8052 9.00617C10.7317 9.02031 10.6739 9.06151 10.6447 9.12074C10.6155 9.18003 10.6173 9.25252 10.6496 9.32227L10.9838 10.0426C11.0504 10.186 11.2277 10.2823 11.3822 10.2528ZM14.9289 11.5084L14.1004 9.72265L15.3377 9.48604C15.6712 9.42229 15.9652 9.46037 16.2032 9.57544C16.4401 9.68991 16.6355 9.88729 16.7646 10.1654C16.9027 10.4632 16.9028 10.7042 16.7627 10.8945C16.6194 11.0889 16.3211 11.2421 15.8284 11.3364L14.9289 11.5084ZM15.4693 12.6731L16.7997 12.4187C17.2235 12.3377 17.5862 12.3797 17.8752 12.5144C18.1623 12.6482 18.3921 12.8804 18.5429 13.2057C18.6947 13.5329 18.6923 13.7904 18.5262 13.995C18.3556 14.2051 18.0036 14.3705 17.4202 14.4821L16.3992 14.6773L15.4693 12.6731Z" fill="white" stroke="#8D79F1" stroke-width="0.25"/>
<path d="M49.6782 26C51.0658 26 52.3059 25.7659 53.3986 25.2978C54.5087 24.8296 55.4453 24.2141 56.2084 23.4512C56.9716 22.671 57.5179 21.8214 57.8475 20.9025L54.6735 19.42C54.2918 20.3909 53.6674 21.1972 52.8002 21.8388C51.9503 22.4629 50.9096 22.775 49.6782 22.775C48.4641 22.775 47.3974 22.4889 46.4782 21.9168C45.559 21.3446 44.8391 20.5558 44.3188 19.5501C43.7984 18.5271 43.5383 17.3394 43.5383 15.987C43.5383 14.6346 43.7984 13.4556 44.3188 12.4499C44.8391 11.427 45.559 10.6381 46.4782 10.0832C47.3974 9.51105 48.4641 9.22497 49.6782 9.22497C50.9096 9.22497 51.9503 9.54573 52.8002 10.1873C53.6674 10.8114 54.2918 11.609 54.6735 12.58L57.8475 11.0975C57.5179 10.1786 56.9716 9.33766 56.2084 8.57477C55.4453 7.79454 54.5087 7.17035 53.3986 6.70221C52.3059 6.23407 51.0658 6 49.6782 6C48.2907 6 47.0071 6.25141 45.8278 6.75423C44.6484 7.23971 43.625 7.93324 42.7578 8.83485C41.8906 9.71912 41.2142 10.7768 40.7285 12.0078C40.2428 13.2215 40 14.5479 40 15.987C40 17.426 40.2428 18.7612 40.7285 19.9922C41.2142 21.2059 41.8906 22.2635 42.7578 23.1651C43.625 24.0668 44.6484 24.769 45.8278 25.2718C47.0071 25.7573 48.2907 26 49.6782 26ZM66.4954 26C67.8655 26 69.1143 25.6879 70.2418 25.0637C71.3691 24.4221 72.2711 23.5466 72.9475 22.4369C73.624 21.31 73.9622 20.0356 73.9622 18.6138C73.9622 17.192 73.624 15.9264 72.9475 14.8166C72.2883 13.707 71.3951 12.8314 70.2678 12.1899C69.1403 11.5483 67.8829 11.2276 66.4954 11.2276C65.0905 11.2276 63.8243 11.5483 62.6969 12.1899C61.5694 12.8314 60.6676 13.707 59.9912 14.8166C59.332 15.9264 59.0025 17.192 59.0025 18.6138C59.0025 20.0356 59.332 21.3012 59.9912 22.4109C60.6676 23.5206 61.5694 24.3961 62.6969 25.0377C63.8416 25.6793 65.1077 26 66.4954 26ZM66.4954 22.8791C65.7321 22.8791 65.047 22.697 64.44 22.3329C63.8503 21.9688 63.382 21.466 63.0351 20.8244C62.7055 20.1656 62.5408 19.4286 62.5408 18.6138C62.5408 17.7989 62.7055 17.0707 63.0351 16.4291C63.382 15.7876 63.8503 15.2848 64.44 14.9207C65.047 14.5392 65.7321 14.3485 66.4954 14.3485C67.2585 14.3485 67.9263 14.5392 68.4986 14.9207C69.0883 15.2848 69.5479 15.7876 69.8775 16.4291C70.2244 17.0707 70.3979 17.7989 70.3979 18.6138C70.3979 19.4286 70.2244 20.1656 69.8775 20.8244C69.5479 21.466 69.0883 21.9688 68.4986 22.3329C67.9263 22.697 67.2585 22.8791 66.4954 22.8791ZM75.9417 9.95319H79.3499V6.31209H75.9417V9.95319ZM75.9417 25.6879H79.3499V11.5397H75.9417V25.6879ZM81.8917 25.6879H85.2999V17.3914C85.2999 16.4725 85.56 15.7355 86.0804 15.1808C86.618 14.6259 87.3118 14.3485 88.1617 14.3485C89.0115 14.3485 89.6967 14.6259 90.2171 15.1808C90.7546 15.7183 91.0236 16.4551 91.0236 17.3914V25.6879H94.4318V16.5852C94.4318 15.5275 94.2062 14.5999 93.7553 13.8023C93.3043 12.9874 92.6713 12.3546 91.8561 11.9038C91.0582 11.453 90.139 11.2276 89.0983 11.2276C88.2138 11.2276 87.4159 11.401 86.7048 11.7477C86.011 12.0945 85.4732 12.606 85.0917 13.2822V11.5397H81.8917V25.6879ZM104.436 26C105.806 26 107.029 25.6793 108.104 25.0377C109.179 24.3789 110.029 23.4946 110.654 22.3849C111.278 21.258 111.59 20.0008 111.59 18.6138C111.59 17.2268 111.278 15.9784 110.654 14.8687C110.029 13.7417 109.179 12.8574 108.104 12.2159C107.029 11.557 105.815 11.2276 104.462 11.2276C102.623 11.2276 101.175 11.8084 100.117 12.9701V6H96.7087V25.6879H99.9088V24.1014C100.429 24.7082 101.08 25.1764 101.86 25.5059C102.658 25.8353 103.516 26 104.436 26ZM104.045 22.8791C103.3 22.8791 102.623 22.697 102.016 22.3329C101.426 21.9688 100.958 21.466 100.611 20.8244C100.282 20.1829 100.117 19.446 100.117 18.6138C100.117 17.7815 100.282 17.0447 100.611 16.4031C100.958 15.7615 101.426 15.2588 102.016 14.8947C102.623 14.5306 103.3 14.3485 104.045 14.3485C104.826 14.3485 105.511 14.5392 106.101 14.9207C106.708 15.2848 107.185 15.7876 107.532 16.4291C107.879 17.0707 108.052 17.7989 108.052 18.6138C108.052 19.4286 107.879 20.1656 107.532 20.8244C107.185 21.466 106.708 21.9688 106.101 22.3329C105.511 22.697 104.826 22.8791 104.045 22.8791ZM117.876 26C119.715 26 121.189 25.3932 122.299 24.1795V25.6879H125.525V16.2731C125.525 15.2848 125.274 14.4092 124.771 13.6463C124.268 12.8834 123.574 12.2939 122.689 11.8778C121.822 11.4443 120.808 11.2276 119.646 11.2276C118.223 11.2276 116.957 11.5657 115.847 12.2419C114.737 12.9181 113.974 13.811 113.558 14.9207L116.341 16.2731C116.602 15.6315 117.009 15.1201 117.564 14.7386C118.119 14.3398 118.77 14.1404 119.515 14.1404C120.296 14.1404 120.92 14.3485 121.389 14.7646C121.874 15.1634 122.117 15.6663 122.117 16.2731V16.7412L117.902 17.4174C116.237 17.6949 115.006 18.2237 114.208 19.0039C113.41 19.7841 113.011 20.7638 113.011 21.9428C113.011 23.1912 113.454 24.1795 114.338 24.9077C115.223 25.6359 116.402 26 117.876 26ZM116.549 21.8127C116.549 20.8244 117.217 20.2003 118.553 19.9402L122.117 19.342V19.9142C122.117 20.8851 121.779 21.7087 121.102 22.3849C120.443 23.0611 119.576 23.3992 118.501 23.3992C117.928 23.3992 117.46 23.2606 117.096 22.9831C116.732 22.6884 116.549 22.2983 116.549 21.8127ZM128.07 25.6879H131.479V17.3914C131.479 16.4725 131.739 15.7355 132.259 15.1808C132.797 14.6259 133.491 14.3485 134.34 14.3485C135.19 14.3485 135.875 14.6259 136.396 15.1808C136.933 15.7183 137.202 16.4551 137.202 17.3914V25.6879H140.61V16.5852C140.61 15.5275 140.385 14.5999 139.934 13.8023C139.483 12.9874 138.85 12.3546 138.035 11.9038C137.237 11.453 136.318 11.2276 135.277 11.2276C134.392 11.2276 133.595 11.401 132.883 11.7477C132.19 12.0945 131.652 12.606 131.27 13.2822V11.5397H128.07V25.6879ZM142.887 25.6879H146.296V21.3706L148.117 19.394L152.097 25.6879H156L150.666 17.2354L155.896 11.5397H151.655L146.296 17.1573V6H142.887V25.6879Z" fill="#0E0637"/>
<defs>
<filter id="filter0_f_16_730" x="5.8479" y="4.28723" width="17.6815" height="17.9171" filterUnits="userSpaceOnUse" color-interpolation-filters="sRGB">
<feFlood flood-opacity="0" result="BackgroundImageFix"/>
<feBlend mode="normal" in="SourceGraphic" in2="BackgroundImageFix" result="shape"/>
<feGaussianBlur stdDeviation="2" result="effect1_foregroundBlur_16_730"/>
</filter>
<linearGradient id="paint0_linear_16_730" x1="32.4659" y1="4.65136" x2="-0.359438" y2="16.2643" gradientUnits="userSpaceOnUse">
<stop stop-color="#5235E8"/>
<stop offset="1" stop-color="#816CEF"/>
</linearGradient>
<linearGradient id="paint1_linear_16_730" x1="7.15646" y1="3.46168" x2="27.5474" y2="18.0893" gradientUnits="userSpaceOnUse">
<stop stop-color="#B0A3F5"/>
<stop offset="1" stop-color="#917FF1"/>
</linearGradient>
</defs>
</svg>
