<?xml version="1.0" encoding="iso-8859-1"?>
<!-- Uploaded to: SVG Repo, www.svgrepo.com, Generator: SVG Repo Mixer Tools -->
<svg height="800px" width="800px" version="1.1" id="Layer_1" xmlns="http://www.w3.org/2000/svg" xmlns:xlink="http://www.w3.org/1999/xlink" 
	 viewBox="0 0 511.883 511.883" xml:space="preserve">
<path style="fill:#3BAFDA;" d="M287.934,0h-0.031H117.309l0,0l0,0c-5.889,0-10.669,4.779-10.669,10.669v287.934H74.647
	c-5.889,0-10.661,4.766-10.661,10.654s4.772,10.67,10.661,10.67h31.993v181.286c0,5.89,4.78,10.67,10.669,10.67
	c5.89,0,10.662-4.78,10.662-10.67V319.926h16.855h143.107c88.354,0,159.964-71.625,159.964-159.964S376.289,0,287.934,0z
	 M385.974,257.987c-12.747,12.747-27.588,22.745-44.084,29.728c-17.09,7.217-35.242,10.888-53.956,10.888H144.827h-16.855V21.323
	h159.932h0.25l0,0c18.651,0.031,36.726,3.702,53.737,10.888c16.496,6.982,31.337,16.98,44.084,29.728
	c12.731,12.731,22.729,27.557,29.712,44.068c7.218,17.074,10.872,35.227,10.872,53.956c0,18.73-3.654,36.882-10.872,53.956
	C408.703,230.431,398.706,245.255,385.974,257.987z"/>
<path style="fill:#4FC2E9;" d="M309.273,362.587H74.647c-5.889,0-10.661,4.765-10.661,10.654s4.772,10.67,10.661,10.67h234.626
	c5.873,0,10.654-4.78,10.654-10.67S315.146,362.587,309.273,362.587z"/>
</svg>